<?xml version="1.0" standalone="no"?>
<!DOCTYPE svg PUBLIC "-//W3C//DTD SVG 20010904//EN"
 "http://www.w3.org/TR/2001/REC-SVG-20010904/DTD/svg10.dtd">
<svg version="1.0" xmlns="http://www.w3.org/2000/svg"
 width="500.000000pt" height="500.000000pt" viewBox="0 0 500.000000 500.000000"
 preserveAspectRatio="xMidYMid meet">
<metadata>
Created by potrace 1.11, written by Peter Selinger 2001-2013
</metadata>
<g transform="translate(0.000000,500.000000) scale(0.100000,-0.100000)"
fill="#000000" stroke="none">
<path d="M310 4270 l0 -430 160 0 160 0 0 -170 0 -170 -160 0 -160 0 0 -1600
0 -1600 2195 0 2195 0 0 320 0 320 -160 0 -160 0 0 -160 0 -160 -1875 0 -1875
0 0 1435 c0 789 3 1435 6 1435 3 0 40 -9 82 -19 347 -88 759 -90 1097 -4 261
65 456 26 589 -118 89 -95 125 -192 126 -331 1 -321 -293 -521 -670 -454 l-65
11 -3 381 -2 381 -78 -19 c-42 -10 -132 -22 -199 -25 l-123 -6 0 -1068 0
-1069 200 0 200 0 2 533 3 532 50 -5 c28 -3 120 -5 205 -5 133 1 165 4 230 24
149 46 269 120 376 233 152 161 224 340 224 561 0 411 -244 732 -615 808 -127
27 -329 22 -475 -11 -220 -50 -282 -60 -422 -71 -219 -17 -477 9 -673 69 l-60
18 -3 272 -2 272 1875 0 1875 0 0 -1275 0 -1275 160 0 160 0 0 1435 0 1435
-2195 0 -2195 0 0 -430z"/>
<path d="M4480 1625 c-171 -54 -231 -275 -112 -407 54 -60 104 -82 187 -83 79
0 128 19 180 70 150 151 56 410 -157 430 -32 3 -70 -1 -98 -10z"/>
</g>
</svg>
